<mxfile host="65bd71144e">
    <diagram name="Page-1" id="0X1LNtYORCH-xmy5lvc5">
        <mxGraphModel dx="1681" dy="682" grid="1" gridSize="10" guides="1" tooltips="1" connect="1" arrows="1" fold="1" page="1" pageScale="1" pageWidth="1654" pageHeight="1169" math="0" shadow="0">
            <root>
                <mxCell id="0"/>
                <mxCell id="1" parent="0"/>
                <mxCell id="ktHzhZtXxw7lbarvhIDh-1" value="ECHO (UART - TEST)" style="rounded=0;whiteSpace=wrap;html=1;" parent="1" vertex="1">
                    <mxGeometry x="120" y="140" width="200" height="40" as="geometry"/>
                </mxCell>
                <mxCell id="ktHzhZtXxw7lbarvhIDh-2" value="SIGNALTYP&amp;nbsp;" style="rounded=0;whiteSpace=wrap;html=1;" parent="1" vertex="1">
                    <mxGeometry x="120" y="180" width="200" height="40" as="geometry"/>
                </mxCell>
                <mxCell id="ktHzhZtXxw7lbarvhIDh-8" value="Write - Bank (Registerfile)" style="text;html=1;align=center;verticalAlign=middle;whiteSpace=wrap;rounded=0;" parent="1" vertex="1">
                    <mxGeometry x="120" y="110" width="160" height="30" as="geometry"/>
                </mxCell>
                <mxCell id="ktHzhZtXxw7lbarvhIDh-9" value="" style="endArrow=classic;startArrow=classic;html=1;rounded=0;" parent="1" edge="1">
                    <mxGeometry width="50" height="50" relative="1" as="geometry">
                        <mxPoint x="120" y="320" as="sourcePoint"/>
                        <mxPoint x="320" y="320" as="targetPoint"/>
                    </mxGeometry>
                </mxCell>
                <mxCell id="ktHzhZtXxw7lbarvhIDh-10" value="16 Bit" style="edgeLabel;html=1;align=center;verticalAlign=middle;resizable=0;points=[];" parent="ktHzhZtXxw7lbarvhIDh-9" vertex="1" connectable="0">
                    <mxGeometry x="-0.03" y="-2" relative="1" as="geometry">
                        <mxPoint as="offset"/>
                    </mxGeometry>
                </mxCell>
                <mxCell id="ktHzhZtXxw7lbarvhIDh-11" value="" style="endArrow=classic;startArrow=classic;html=1;rounded=0;" parent="1" edge="1">
                    <mxGeometry width="50" height="50" relative="1" as="geometry">
                        <mxPoint x="80" y="140" as="sourcePoint"/>
                        <mxPoint x="80" y="300" as="targetPoint"/>
                    </mxGeometry>
                </mxCell>
                <mxCell id="ktHzhZtXxw7lbarvhIDh-12" value="Addr&lt;br&gt;0 - 3" style="edgeLabel;html=1;align=center;verticalAlign=middle;resizable=0;points=[];" parent="ktHzhZtXxw7lbarvhIDh-11" vertex="1" connectable="0">
                    <mxGeometry x="-0.03" y="-2" relative="1" as="geometry">
                        <mxPoint as="offset"/>
                    </mxGeometry>
                </mxCell>
                <mxCell id="ktHzhZtXxw7lbarvhIDh-31" value="ECHO (UART - TEST)" style="rounded=0;whiteSpace=wrap;html=1;" parent="1" vertex="1">
                    <mxGeometry x="520" y="140" width="200" height="40" as="geometry"/>
                </mxCell>
                <mxCell id="ktHzhZtXxw7lbarvhIDh-32" value="0" style="rounded=0;whiteSpace=wrap;html=1;" parent="1" vertex="1">
                    <mxGeometry x="520" y="180" width="200" height="40" as="geometry"/>
                </mxCell>
                <mxCell id="ktHzhZtXxw7lbarvhIDh-38" value="0" style="rounded=0;whiteSpace=wrap;html=1;" parent="1" vertex="1">
                    <mxGeometry x="520" y="260" width="200" height="40" as="geometry"/>
                </mxCell>
                <mxCell id="ktHzhZtXxw7lbarvhIDh-39" value="" style="endArrow=classic;startArrow=classic;html=1;rounded=0;" parent="1" edge="1">
                    <mxGeometry width="50" height="50" relative="1" as="geometry">
                        <mxPoint x="520" y="320" as="sourcePoint"/>
                        <mxPoint x="720" y="320" as="targetPoint"/>
                    </mxGeometry>
                </mxCell>
                <mxCell id="ktHzhZtXxw7lbarvhIDh-40" value="16 Bit" style="edgeLabel;html=1;align=center;verticalAlign=middle;resizable=0;points=[];" parent="ktHzhZtXxw7lbarvhIDh-39" vertex="1" connectable="0">
                    <mxGeometry x="-0.03" y="-2" relative="1" as="geometry">
                        <mxPoint as="offset"/>
                    </mxGeometry>
                </mxCell>
                <mxCell id="ktHzhZtXxw7lbarvhIDh-43" value="Read Bank (Registerfile)&amp;nbsp;" style="text;html=1;align=center;verticalAlign=middle;whiteSpace=wrap;rounded=0;" parent="1" vertex="1">
                    <mxGeometry x="520" y="110" width="170" height="30" as="geometry"/>
                </mxCell>
                <mxCell id="2" value="FREQUENZ" style="rounded=0;whiteSpace=wrap;html=1;" vertex="1" parent="1">
                    <mxGeometry x="120" y="220" width="200" height="40" as="geometry"/>
                </mxCell>
                <mxCell id="3" value="DUTY CYCLE" style="rounded=0;whiteSpace=wrap;html=1;" vertex="1" parent="1">
                    <mxGeometry x="120" y="260" width="200" height="40" as="geometry"/>
                </mxCell>
                <mxCell id="4" value="0" style="rounded=0;whiteSpace=wrap;html=1;" vertex="1" parent="1">
                    <mxGeometry x="520" y="220" width="200" height="40" as="geometry"/>
                </mxCell>
                <mxCell id="5" value="" style="endArrow=classic;startArrow=classic;html=1;rounded=0;" edge="1" parent="1">
                    <mxGeometry width="50" height="50" relative="1" as="geometry">
                        <mxPoint x="480" y="140" as="sourcePoint"/>
                        <mxPoint x="480" y="300" as="targetPoint"/>
                    </mxGeometry>
                </mxCell>
                <mxCell id="6" value="Addr&lt;br&gt;0 - 3" style="edgeLabel;html=1;align=center;verticalAlign=middle;resizable=0;points=[];" vertex="1" connectable="0" parent="5">
                    <mxGeometry x="-0.03" y="-2" relative="1" as="geometry">
                        <mxPoint as="offset"/>
                    </mxGeometry>
                </mxCell>
            </root>
        </mxGraphModel>
    </diagram>
</mxfile>